<svg id="Layer_2" data-name="Layer 2" xmlns="http://www.w3.org/2000/svg" viewBox="0 130 750 650"><defs><style>.cls-1,.cls-6,.cls-7{stroke:#c6c6c6;}.cls-1,.cls-10,.cls-14,.cls-17,.cls-18,.cls-2,.cls-3,.cls-34,.cls-4,.cls-6,.cls-7{stroke-miterlimit:10;}.cls-1,.cls-10,.cls-18,.cls-7{stroke-width:0.3px;}.cls-10,.cls-17,.cls-18,.cls-19,.cls-2,.cls-3,.cls-34,.cls-4,.cls-6,.cls-7{fill:none;}.cls-10,.cls-14,.cls-2,.cls-3,.cls-34,.cls-4{stroke:#fff;}.cls-2{stroke-width:2px;}.cls-14,.cls-4,.cls-6{stroke-width:0.5px;}.cls-15,.cls-16,.cls-20,.cls-5,.cls-8{fill:#fff;}.cls-8{font-size:3px;}.cls-15,.cls-16,.cls-8{font-family:MyriadPro-Regular, Myriad Pro;}.cls-9{letter-spacing:-0.03em;}.cls-11{letter-spacing:-0.05em;}.cls-12{letter-spacing:0.01em;}.cls-13{fill:#d6d6d6;}.cls-15{font-size:10px;}.cls-16,.cls-20{font-size:4px;}.cls-17,.cls-18{stroke:#d6d6d6;}.cls-17{stroke-width:0.2px;}.cls-20{font-family:Rockwell, Rockwell;}.cls-21{letter-spacing:-0.09em;}.cls-22{letter-spacing:-0.02em;}.cls-23{letter-spacing:0.02em;}.cls-24{letter-spacing:-0.08em;}.cls-25{letter-spacing:-0.04em;}.cls-26{letter-spacing:-0.02em;}.cls-27{letter-spacing:-0.02em;}.cls-28{letter-spacing:-0.05em;}.cls-29{letter-spacing:0.03em;}.cls-30{letter-spacing:-0.01em;}.cls-31{letter-spacing:0.02em;}.cls-32{letter-spacing:-0.03em;}.cls-33{letter-spacing:-0.06em;}.cls-34{stroke-width:0.25px;}</style></defs><title>1computer-work</title><line class="cls-1" x1="277.5" y1="234" x2="592.5" y2="234"/><line class="cls-1" x1="277.5" y1="238" x2="592" y2="238"/><rect class="cls-2" x="207.75" y="215.48" width="384.5" height="237.05"/><line class="cls-3" x1="208" y1="434" x2="592" y2="434"/><line class="cls-4" x1="208" y1="423.5" x2="592" y2="423.5"/><line class="cls-3" x1="582.5" y1="449" x2="582.5" y2="452.52"/><rect class="cls-5" x="575" y="452" width="6" height="3" rx="1.23" ry="1.23"/><circle class="cls-6" cx="431.5" cy="428.5" r="3"/><circle class="cls-6" cx="422.5" cy="428.5" r="3"/><circle class="cls-6" cx="413.5" cy="428.5" r="3"/><circle class="cls-6" cx="404.5" cy="428.5" r="3"/><circle class="cls-6" cx="395.5" cy="428.5" r="3"/><circle class="cls-6" cx="386.5" cy="428.5" r="3"/><circle class="cls-6" cx="377.5" cy="428.5" r="3"/><circle class="cls-6" cx="368.5" cy="428.5" r="3"/><path class="cls-4" d="M388,392H348a1,1,0,0,0-1,1v24a1,1,0,0,0,1,1h17.08l2.92,3.5,2.92-3.5H388a1,1,0,0,0,1-1V393A1,1,0,0,0,388,392Z"/><rect class="cls-5" x="216.83" y="470.28" width="25.34" height="8.45"/><path class="cls-5" d="M418,454v65.6h1v5.16h-5v1.65H385v-1.65h-5V519.6h2v-7.85H256V514h-6v-2.25H208V514h-6v-7.72h-4.8V484.72H202V477h6v2.25h42V477h6v2.25H382V454h36m2-2H380v25.25H258V475H248v2.25H210V475H200v7.72h-4.8v25.56H200V516h10v-2.25h38V516h10v-2.25H380v3.85h-2v9.16h5v1.65h33v-1.65h5V517.6h-1V452Z"/><path class="cls-5" d="M693,683v17H80V683H693m2-2H78v21H695V681Z"/><line class="cls-4" x1="208" y1="224.5" x2="593" y2="224.5"/><line class="cls-4" x1="220.67" y1="224.5" x2="220.67" y2="423.5"/><line class="cls-4" x1="277.5" y1="225" x2="277.5" y2="424"/><line class="cls-7" x1="327" y1="225" x2="327" y2="233"/><line class="cls-7" x1="220.67" y1="242.67" x2="277.5" y2="242.67"/><text class="cls-8" transform="translate(226.08 240.55)">OPEN EDI<tspan class="cls-9" x="11.94" y="0">T</tspan><tspan x="13.35" y="0">ORS</tspan></text><polyline class="cls-10" points="222 239 223.5 240.5 225 239"/><line class="cls-7" x1="220.67" y1="306.67" x2="277.5" y2="306.67"/><text class="cls-8" transform="translate(226.08 304.55)">M<tspan class="cls-11" x="2.41" y="0">Y</tspan><tspan x="3.88" y="0">-PO</tspan><tspan class="cls-12" x="8.47" y="0">R</tspan><tspan x="10.11" y="0">TFOLIO </tspan></text><polyline class="cls-10" points="222 303 223.5 304.5 225 303"/><polyline class="cls-10" points="226 312 227.5 313.5 229 312"/><polyline class="cls-10" points="230.79 324 232.29 325.5 233.79 324"/><polyline class="cls-10" points="231.54 320.35 233.04 318.85 231.54 317.35"/><polyline class="cls-10" points="303.54 244.18 305.04 242.68 303.54 241.18"/><circle class="cls-5" cx="214.5" cy="231.5" r="3.5"/><circle class="cls-5" cx="212.5" cy="220.5" r="1.79"/><circle class="cls-5" cx="214.5" cy="247.5" r="3.5"/><circle class="cls-5" cx="214.5" cy="263.5" r="3.5"/><circle class="cls-5" cx="214.5" cy="279.5" r="3.5"/><circle class="cls-5" cx="214.5" cy="295.5" r="3.5"/><circle class="cls-5" cx="214.5" cy="416.5" r="3.5"/><circle class="cls-4" cx="285" cy="229.5" r="1.5"/><rect class="cls-5" x="288.5" y="228.5" width="32.5" height="2"/><circle class="cls-4" cx="226" cy="249.5" r="1.5"/><rect class="cls-5" x="229.5" y="248.5" width="19.5" height="2"/><rect class="cls-5" x="281.5" y="241.68" width="19.5" height="2"/><polyline class="cls-10" points="330.54 244.18 332.04 242.68 330.54 241.18"/><rect class="cls-5" x="308.5" y="241.68" width="19.5" height="2"/><polyline class="cls-10" points="357.54 244.18 359.04 242.68 357.54 241.18"/><rect class="cls-5" x="335.5" y="241.68" width="19.5" height="2"/><rect class="cls-5" x="362.5" y="241.68" width="19.5" height="2"/><circle class="cls-4" cx="226" cy="270.5" r="1.5"/><rect class="cls-5" x="229.5" y="269.5" width="19.5" height="2"/><circle class="cls-4" cx="232.29" cy="312.5" r="1.5"/><rect class="cls-5" x="235.5" y="311.5" width="24.5" height="2"/><rect class="cls-13" x="235.5" y="318.5" width="24.5" height="0.5"/><rect class="cls-13" x="235.5" y="324.5" width="30.5" height="0.5"/><rect class="cls-13" x="235.5" y="331.5" width="24.5" height="0.5"/><rect class="cls-13" x="235.5" y="338.5" width="34.5" height="0.5"/><rect class="cls-13" x="235.5" y="345.5" width="20.5" height="0.5"/><rect class="cls-5" x="252.5" y="248.5" width="13.5" height="2"/><line class="cls-7" x1="376" y1="225" x2="376" y2="233"/><circle class="cls-4" cx="334" cy="229.5" r="1.5"/><rect class="cls-5" x="337.5" y="228.5" width="32.5" height="2"/><line class="cls-7" x1="425" y1="225" x2="425" y2="233"/><circle class="cls-4" cx="383" cy="229.5" r="1.5"/><rect class="cls-5" x="386.5" y="228.5" width="32.5" height="2"/><line class="cls-7" x1="474" y1="225" x2="474" y2="233"/><circle class="cls-4" cx="432" cy="229.5" r="1.5"/><rect class="cls-5" x="435.5" y="228.5" width="32.5" height="2"/><line class="cls-7" x1="523" y1="225" x2="523" y2="233"/><circle class="cls-4" cx="481" cy="229.5" r="1.5"/><rect class="cls-5" x="484.5" y="228.5" width="32.5" height="2"/><line class="cls-14" x1="549.25" y1="229.5" x2="543.25" y2="229.5"/><circle class="cls-14" cx="546.25" cy="229.5" r="1.5"/><line class="cls-4" x1="538.5" y1="229.5" x2="532.51" y2="229.5"/><polygon class="cls-5" points="533.41 228.74 532.65 229.5 533.41 230.26 532.76 230.26 532 229.5 532.76 228.74 533.41 228.74"/><circle class="cls-14" cx="536" cy="229.5" r="1.5"/><line class="cls-4" x1="554" y1="229.5" x2="559.99" y2="229.5"/><polygon class="cls-5" points="559.09 230.26 559.85 229.5 559.09 228.74 559.74 228.74 560.5 229.5 559.74 230.26 559.09 230.26"/><circle class="cls-14" cx="556.5" cy="229.5" r="1.5"/><text class="cls-15" transform="translate(580.06 229.69)">...</text><text class="cls-16" transform="translate(250 251)">\</text><circle class="cls-4" cx="226" cy="263.5" r="1.5"/><rect class="cls-5" x="229.5" y="262.5" width="20.5" height="2"/><rect class="cls-5" x="254.5" y="262.5" width="19.5" height="2"/><text class="cls-16" transform="translate(252 265)">\</text><circle class="cls-4" cx="226" cy="256.5" r="1.5"/><rect class="cls-5" x="229.5" y="255.5" width="17.5" height="2"/><rect class="cls-5" x="250.5" y="255.5" width="13.5" height="2"/><rect class="cls-5" x="267.5" y="255.5" width="6.5" height="2"/><text class="cls-16" transform="translate(248 258)">\</text><text class="cls-16" transform="translate(265 258)">\</text><line class="cls-17" x1="232" y1="327" x2="232" y2="346"/><polyline class="cls-10" points="226 353 227.5 354.5 229 353"/><polyline class="cls-10" points="230.79 365 232.29 366.5 233.79 365"/><polyline class="cls-10" points="231.54 361.35 233.04 359.85 231.54 358.35"/><circle class="cls-4" cx="232.29" cy="353.5" r="1.5"/><rect class="cls-5" x="235.5" y="352.5" width="24.5" height="2"/><rect class="cls-13" x="235.5" y="359.5" width="34.5" height="0.5"/><rect class="cls-13" x="235.5" y="365.5" width="27.5" height="0.5"/><rect class="cls-13" x="235.5" y="372.5" width="29.5" height="0.5"/><rect class="cls-13" x="235.5" y="379.5" width="22.5" height="0.5"/><rect class="cls-13" x="235.5" y="386.5" width="24.5" height="0.5"/><line class="cls-17" x1="232" y1="368" x2="232" y2="387"/><rect class="cls-18" x="349" y="395" width="38" height="20" rx="1" ry="1"/><line class="cls-19" x1="584" y1="223" x2="589.66" y2="217.34"/><line class="cls-4" x1="589" y1="222" x2="586" y2="219"/><line class="cls-4" x1="586" y1="222" x2="589" y2="219"/><text class="cls-20" transform="translate(285.83 252.33)">1<tspan x="0" y="4.8">2</tspan><tspan x="0" y="9.6">3</tspan><tspan x="0" y="14.4">4</tspan><tspan x="0" y="19.2">5</tspan><tspan x="0" y="24">6</tspan><tspan x="0" y="28.8">7</tspan><tspan x="0" y="33.6">8</tspan><tspan x="0" y="38.4">9</tspan><tspan x="-2.17" y="43.2">10</tspan><tspan x="-2.17" y="48">11</tspan><tspan x="-2.17" y="52.8">12</tspan><tspan x="-2.17" y="57.6">13</tspan><tspan x="-2.17" y="62.4">14</tspan><tspan x="-2.17" y="67.2">15</tspan><tspan x="-2.17" y="72">16</tspan><tspan x="-2.17" y="76.8">17</tspan><tspan x="-2.17" y="81.6">18</tspan><tspan x="-2.17" y="86.4">19</tspan><tspan x="-2.17" y="91.2">20</tspan><tspan x="-2.17" y="96">21</tspan><tspan x="-2.17" y="100.8">22</tspan><tspan x="-2.17" y="105.6">23</tspan><tspan x="-2.17" y="110.4">24</tspan><tspan x="-2.17" y="115.2">25</tspan><tspan x="-2.17" y="120">26</tspan><tspan x="-2.17" y="124.8">27</tspan><tspan x="-2.17" y="129.6">28</tspan><tspan x="-2.17" y="134.4">29</tspan><tspan x="-2.17" y="139.2">30</tspan><tspan x="-2.17" y="144">31</tspan><tspan x="-2.17" y="148.8">32</tspan><tspan x="-2.17" y="153.6">33</tspan><tspan x="-2.17" y="158.4">34</tspan><tspan x="-2.17" y="163.2">35</tspan><tspan x="-2.17" y="168">36</tspan></text><text class="cls-20" transform="translate(291.75 257.5)">class My<tspan class="cls-21" x="15.79" y="0">W</tspan><tspan x="19.43" y="0">o</tspan><tspan class="cls-22" x="21.72" y="0">r</tspan><tspan x="23.31" y="0">k {</tspan><tspan x="0" y="4.8" xml:space="preserve">    const</tspan><tspan class="cls-23" x="13.71" y="4.8">r</tspan><tspan x="15.44" y="4.8">uctor(design</tspan><tspan class="cls-24" x="39.03" y="4.8">,</tspan><tspan x="39.88" y="4.8" xml:space="preserve"> p</tspan><tspan class="cls-25" x="43.38" y="4.8">r</tspan><tspan x="44.88" y="4.8">og</tspan><tspan class="cls-26" x="49.68" y="4.8">r</tspan><tspan x="51.24" y="4.8">ammin</tspan><tspan class="cls-25" x="63.75" y="4.8">g</tspan><tspan class="cls-24" x="66.09" y="4.8">,</tspan><tspan x="66.94" y="4.8" xml:space="preserve"> video</tspan><tspan class="cls-27" x="78.36" y="4.8">g</tspan><tspan x="80.8" y="4.8">ames) {</tspan><tspan x="0" y="9.6" xml:space="preserve">        </tspan><tspan x="0" y="14.4" xml:space="preserve">        this.design = design</tspan><tspan class="cls-24" x="45.51" y="14.4">;</tspan><tspan x="0" y="19.2" xml:space="preserve">        this.p</tspan><tspan class="cls-25" x="18.17" y="19.2">r</tspan><tspan x="19.68" y="19.2">og</tspan><tspan class="cls-26" x="24.47" y="19.2">r</tspan><tspan x="26.04" y="19.2">amming = p</tspan><tspan class="cls-25" x="48.21" y="19.2">r</tspan><tspan x="49.72" y="19.2">og</tspan><tspan class="cls-26" x="54.51" y="19.2">r</tspan><tspan x="56.08" y="19.2">amming</tspan><tspan class="cls-24" x="71.09" y="19.2">;</tspan><tspan x="0" y="24" xml:space="preserve">        this.video</tspan><tspan class="cls-27" x="26.09" y="24">g</tspan><tspan x="28.53" y="24">ames = video</tspan><tspan class="cls-27" x="53.33" y="24">g</tspan><tspan x="55.77" y="24">ames</tspan><tspan class="cls-24" x="65.48" y="24">;</tspan><tspan x="0" y="33.6" xml:space="preserve">    }</tspan><tspan x="0" y="38.4" xml:space="preserve">    super() {</tspan><tspan x="0" y="43.2" xml:space="preserve">        </tspan><tspan x="0" y="48" xml:space="preserve">    }</tspan><tspan x="0" y="62.4" xml:space="preserve">    d</tspan><tspan class="cls-26" x="6.5" y="62.4">r</tspan><tspan class="cls-22" x="8.07" y="62.4">a</tspan><tspan x="10.11" y="62.4">w() {</tspan><tspan x="0" y="67.2" xml:space="preserve">        </tspan><tspan class="cls-28" x="8" y="67.2">r</tspan><tspan x="9.47" y="67.2">etu</tspan><tspan class="cls-29" x="15.22" y="67.2">r</tspan><tspan x="17.01" y="67.2">n `${this.design.p</tspan><tspan class="cls-25" x="49.05" y="67.2">r</tspan><tspan x="50.56" y="67.2">oject1}`</tspan><tspan x="0" y="72" xml:space="preserve">    }</tspan><tspan x="0" y="76.8">}</tspan><tspan x="0" y="91.2">const est</tspan><tspan class="cls-27" x="16.04" y="91.2">e</tspan><tspan x="18.27" y="91.2">ban</tspan><tspan class="cls-21" x="25.27" y="91.2">W</tspan><tspan x="28.91" y="91.2">o</tspan><tspan class="cls-22" x="31.21" y="91.2">r</tspan><tspan x="32.79" y="91.2">k = n</tspan><tspan class="cls-22" x="42.05" y="91.2">e</tspan><tspan x="44.26" y="91.2">w My</tspan><tspan class="cls-21" x="54.1" y="91.2">W</tspan><tspan x="57.74" y="91.2">o</tspan><tspan class="cls-22" x="60.03" y="91.2">r</tspan><tspan x="61.62" y="91.2">k({</tspan><tspan x="0" y="96" xml:space="preserve">    p</tspan><tspan class="cls-25" x="6.5" y="96">r</tspan><tspan x="8.01" y="96">oject1</tspan><tspan class="cls-24" x="19.22" y="96">:</tspan><tspan x="20.07" y="96" xml:space="preserve"> &apos;Ast</tspan><tspan class="cls-25" x="27.61" y="96">r</tspan><tspan x="29.12" y="96">onaut&apos;</tspan><tspan x="0" y="100.8">}</tspan><tspan class="cls-24" x="1.33" y="100.8">,</tspan><tspan x="2.18" y="100.8" xml:space="preserve"> { p</tspan><tspan class="cls-25" x="8.01" y="100.8">r</tspan><tspan x="9.52" y="100.8">oject1</tspan><tspan class="cls-24" x="20.73" y="100.8">:</tspan><tspan x="21.58" y="100.8" xml:space="preserve"> &quot;e-comme</tspan><tspan class="cls-25" x="41.5" y="100.8">r</tspan><tspan x="43.01" y="100.8">ce&quot;</tspan><tspan class="cls-24" x="49.01" y="100.8">,</tspan><tspan x="49.86" y="100.8" xml:space="preserve"> p</tspan><tspan class="cls-25" x="53.36" y="100.8">r</tspan><tspan x="54.87" y="100.8">oject2</tspan><tspan class="cls-24" x="66.08" y="100.8">:</tspan><tspan x="66.93" y="100.8" xml:space="preserve"> &quot;inmensi</tspan><tspan class="cls-23" x="84.06" y="100.8">r</tspan><tspan class="cls-26" x="85.79" y="100.8">v</tspan><tspan x="87.86" y="100.8">e </tspan><tspan class="cls-30" x="91.15" y="100.8">e</tspan><tspan x="93.4" y="100.8">xpe</tspan><tspan class="cls-31" x="100.4" y="100.8">r</tspan><tspan x="102.15" y="100.8">iences&quot; }</tspan><tspan class="cls-24" x="118.07" y="100.8">,</tspan><tspan x="118.92" y="100.8" xml:space="preserve"> { names</tspan><tspan class="cls-24" x="134.25" y="100.8">:</tspan><tspan x="135.1" y="100.8" xml:space="preserve"> [&apos;jum</tspan><tspan class="cls-32" x="145.19" y="100.8">p</tspan><tspan x="147.57" y="100.8">y&apos;</tspan><tspan class="cls-24" x="150.53" y="100.8">,</tspan><tspan x="151.37" y="100.8" xml:space="preserve"> &quot;Ride</tspan><tspan class="cls-25" x="162.37" y="100.8"> </tspan><tspan class="cls-33" x="163.21" y="100.8">T</tspan><tspan x="165.27" y="100.8">o He</tspan><tspan class="cls-22" x="173.68" y="100.8">a</tspan><tspan class="cls-26" x="175.73" y="100.8">v</tspan><tspan x="177.79" y="100.8">en&quot;] })</tspan><tspan class="cls-24" x="189.34" y="100.8">;</tspan><tspan x="0" y="120">consol</tspan><tspan class="cls-22" x="11.96" y="120">e</tspan><tspan x="14.18" y="120">.log(est</tspan><tspan class="cls-27" x="28.14" y="120">e</tspan><tspan x="30.37" y="120">ban</tspan><tspan class="cls-21" x="37.37" y="120">W</tspan><tspan x="41.01" y="120">o</tspan><tspan class="cls-22" x="43.3" y="120">r</tspan><tspan x="44.89" y="120">k.d</tspan><tspan class="cls-26" x="50.85" y="120">r</tspan><tspan class="cls-22" x="52.42" y="120">a</tspan><tspan x="54.46" y="120">w())</tspan><tspan class="cls-24" x="62.05" y="120">;</tspan></text><line class="cls-4" x1="357" y1="378" x2="357" y2="373"/><path class="cls-34" d="M394.75,301s.63-1,1.25,0v5"/><path class="cls-34" d="M397.25,301s-.62-1-1.25,0v5"/><path class="cls-34" d="M397.25,306s-.62,1-1.25,0v-5"/><path class="cls-34" d="M394.75,306s.63,1,1.25,0v-5"/><path class="cls-5" d="M246,480V676h10.41v5H201.59v-5H212V480h34m2-2H210V674H199.59v9h58.82v-9H248V478Z"/></svg>